<?xml version="1.0" encoding="UTF-8" standalone="no"?>
<!-- Creator: CorelDRAW 2020 (64-Bit) -->

<svg
   xml:space="preserve"
   width="170.377mm"
   height="152.17032mm"
   version="1.1"
   style="clip-rule:evenodd;fill-rule:evenodd;image-rendering:optimizeQuality;shape-rendering:geometricPrecision;text-rendering:geometricPrecision"
   viewBox="0 0 17037.7 15217.032"
   id="svg30"
   sodipodi:docname="logo.svg"
   inkscape:version="1.2.2 (732a01da63, 2022-12-09)"
   xmlns:inkscape="http://www.inkscape.org/namespaces/inkscape"
   xmlns:sodipodi="http://sodipodi.sourceforge.net/DTD/sodipodi-0.dtd"
   xmlns="http://www.w3.org/2000/svg"
   xmlns:svg="http://www.w3.org/2000/svg"><sodipodi:namedview
   id="namedview32"
   pagecolor="#ffffff"
   bordercolor="#000000"
   borderopacity="0.25"
   inkscape:showpageshadow="2"
   inkscape:pageopacity="0.0"
   inkscape:pagecheckerboard="0"
   inkscape:deskcolor="#d1d1d1"
   inkscape:document-units="mm"
   showgrid="false"
   inkscape:zoom="0.74564394"
   inkscape:cx="318.51664"
   inkscape:cy="482.80417"
   inkscape:window-width="1920"
   inkscape:window-height="1017"
   inkscape:window-x="1912"
   inkscape:window-y="-8"
   inkscape:window-maximized="1"
   inkscape:current-layer="Слой_x0020_1" />
 <defs
   id="defs4">
  <style
   type="text/css"
   id="style2">
   <![CDATA[
    .str0 {stroke:#2B2A29;stroke-width:282.22;stroke-miterlimit:22.9256}
    .str1 {stroke:#2B2A29;stroke-width:20;stroke-miterlimit:22.9256}
    .fil0 {fill:none}
    .fil1 {fill:#2B2A29}
    .fil2 {fill:white}
   ]]>
  </style>
 </defs>
 <g
   id="Слой_x0020_1"
   inkscape:label="Слой 1"
   inkscape:groupmode="layer"
   transform="translate(-2101.6978,-2096.1081)">
  <metadata
   id="CorelCorpID_0Corel-Layer" />
  <polygon
   class="fil0 str0"
   points="10642.02,2630.51 18897.03,17172.03 2344.68,17172.03 "
   id="polygon7" />
  <polygon
   class="fil1 str0"
   points="10642.02,17172.03 10642.02,2630.51 18897.03,17172.03 "
   id="polygon9" />
  <polygon
   class="fil1 str1"
   points="4794.69,13637.18 5440.28,13626.59 5434.99,14568.51 6255.2,14557.93 6255.2,13631.89 6890.2,13631.89 6874.33,16129.56 6244.62,16140.14 6239.32,15129.43 5419.11,15129.43 5403.24,16171.89 4762.94,16156.02 "
   id="polygon11" />
  <polygon
   class="fil1 str1"
   points="9028.05,13647.82 9028.05,14229.91 8461.84,14229.91 8440.67,16171.96 7736.88,16166.66 7736.88,14235.2 7091.29,14235.2 7086,13647.82 "
   id="polygon13" />
  <polygon
   class="fil1 str1"
   points="9895.89,13647.82 9906.47,15600.45 10647.31,15600.45 10647.31,16161.37 9213.26,16177.25 9245.01,13642.53 "
   id="polygon15" />
  <polygon
   class="fil2 str1"
   points="10642.03,13653.09 11266.45,13653.09 11266.45,15595.13 11531.03,15595.13 11525.77,16621.78 10938.39,16621.78 10938.39,16161.41 10647.31,16161.37 10647.31,15600.45 "
   id="polygon17" />
  <polygon
   class="fil2 str1"
   points="11853.86,13671.66 12446.53,13666.37 12441.24,14957.54 13975.82,13597.57 14012.86,16216.96 13393.74,16216.96 13404.32,14809.37 11848.57,16243.42 "
   id="polygon19" />
  <polygon
   class="fil2 str1"
   points="15028.83,13645.19 15028.83,14565.94 15859.62,14565.94 15870.21,13655.77 16484.04,13655.77 16484.04,16169.32 15870.21,16164.03 15880.79,15132.15 15071.16,15132.15 15050,16164.03 14372.66,16164.03 14393.83,13645.19 "
   id="polygon21" />
  <line
   class="fil0 str1"
   x1="10642.02"
   y1="2630.51"
   x2="10642.02"
   y2="17172.029"
   id="line23" />
  <path
   class="fil1 str1"
   d="m 8490.03,8879.23 c 156.98,-405.7 379.23,-814.93 652.64,-1224.15 273.4,-409.22 597.95,-818.44 899.58,-1139.47 301.62,-321.03 580.32,-553.86 760.23,-709.08 179.92,-155.23 261.06,-232.84 308.68,-276.93 47.63,-44.1 61.74,-54.69 68.79,-1.77 7.06,52.92 7.06,169.33 14.11,335.14 7.06,165.81 21.18,381 70.57,633.24 49.39,252.24 134.05,541.51 238.12,825.5 104.07,283.98 227.55,562.68 361.6,823.74 134.06,261.05 278.69,504.46 428.62,732.01 149.93,227.54 305.16,439.21 428.63,670.28 123.47,231.07 215.2,481.54 268.11,714.38 52.92,232.83 67.03,448.02 59.97,656.16 -7.05,208.14 -35.28,409.23 -112.89,631.48 -77.61,222.25 -204.61,465.66 -389.82,694.97 -185.21,229.3 -428.62,444.5 -694.97,592.67 -266.35,148.16 -555.62,229.3 -813.15,280.46 -257.53,51.15 -483.31,72.31 -737.31,40.56 -254,-31.75 -536.22,-116.41 -772.58,-222.24 -236.36,-105.84 -426.87,-232.84 -613.84,-426.87 -186.97,-194.03 -370.42,-455.08 -499.18,-726.72 -128.76,-271.64 -202.85,-553.87 -238.12,-837.85 -35.28,-283.99 -31.76,-569.74 15.87,-913.7 47.62,-343.96 139.35,-746.12 296.34,-1151.81 z"
   id="path25" />
  <path
   class="fil2 str1"
   d="m 10671.74,5943.03 c 59.36,-51.53 113.31,-97.56 160.46,-138.24 179.92,-155.22 261.06,-232.84 308.68,-276.93 47.63,-44.1 61.74,-54.69 68.79,-1.77 7.06,52.92 7.06,169.33 14.11,335.14 7.06,165.81 21.18,381 70.57,633.24 49.39,252.24 134.05,541.51 238.12,825.5 104.07,283.98 227.55,562.68 361.6,823.74 134.06,261.05 278.69,504.46 428.62,732.01 149.93,227.54 305.16,439.21 428.63,670.28 123.47,231.07 215.2,481.54 268.11,714.38 52.92,232.83 67.03,448.02 59.97,656.16 -7.05,208.14 -35.28,409.23 -112.89,631.48 -77.61,222.25 -204.61,465.66 -389.82,694.97 -185.21,229.3 -428.62,444.5 -694.97,592.67 -266.35,148.16 -555.62,229.31 -813.15,280.46 -69.16,13.74 -136.04,25.33 -201.8,34.29 -65.74,8.96 -130.37,15.32 -195.03,18.63 z"
   id="path27" />
 </g>
</svg>
