<?xml version="1.0" encoding="UTF-8" standalone="no"?>
<!-- Creator: CorelDRAW 2020 (64-Bit) -->

<svg
   xml:space="preserve"
   width="141.82831mm"
   height="176.9359mm"
   version="1.1"
   style="clip-rule:evenodd;fill-rule:evenodd;image-rendering:optimizeQuality;shape-rendering:geometricPrecision;text-rendering:geometricPrecision"
   viewBox="0 0 14182.831 17693.59"
   id="svg226"
   sodipodi:docname="earth.svg"
   inkscape:version="1.2.2 (732a01da63, 2022-12-09)"
   xmlns:inkscape="http://www.inkscape.org/namespaces/inkscape"
   xmlns:sodipodi="http://sodipodi.sourceforge.net/DTD/sodipodi-0.dtd"
   xmlns="http://www.w3.org/2000/svg"
   xmlns:svg="http://www.w3.org/2000/svg"><sodipodi:namedview
   id="namedview228"
   pagecolor="#ffffff"
   bordercolor="#000000"
   borderopacity="0.25"
   inkscape:showpageshadow="2"
   inkscape:pageopacity="0.0"
   inkscape:pagecheckerboard="0"
   inkscape:deskcolor="#d1d1d1"
   inkscape:document-units="mm"
   showgrid="false"
   inkscape:zoom="0.74564394"
   inkscape:cx="392.27838"
   inkscape:cy="359.42088"
   inkscape:window-width="1920"
   inkscape:window-height="1017"
   inkscape:window-x="1912"
   inkscape:window-y="-8"
   inkscape:window-maximized="1"
   inkscape:current-layer="Слой_x0020_1" />
 <defs
   id="defs4">
  <style
   type="text/css"
   id="style2">
   <![CDATA[
    .str0 {stroke:#2B2A29;stroke-width:20;stroke-miterlimit:22.9256}
    .fil7 {fill:none}
    .fil1 {fill:#FEFEFE}
    .fil5 {fill:#9D9E9E}
    .fil8 {fill:#2B2A29}
    .fil2 {fill:#FFF383}
    .fil3 {fill:#F7AA47}
    .fil4 {fill:#E51A4B}
    .fil0 {fill:#00A0E3}
    .fil6 {fill:#009846}
   ]]>
  </style>
 </defs>
 <g
   id="Слой_x0020_1"
   inkscape:label="Слой 1"
   inkscape:groupmode="layer"
   transform="translate(-143.6727,-234.01904)">
  <metadata
   id="CorelCorpID_0Corel-Layer" />
  <ellipse
   class="fil0 str0"
   cx="7230.7065"
   cy="7070.269"
   rx="6762.7598"
   ry="6826.25"
   id="ellipse7" />
  <path
   class="fil1 str0"
   d="m 5428.5861,509.11967 c -158.43,55.2 -270.2,117.29 -327.85,179.21 -57.66,61.92 -61.18,123.65 -13.55,174.81 47.62,51.15 146.39,91.72 229.3,105.83 82.9,14.11 149.92,1.77 204.6,-0.87 54.68,-2.65 97.02,4.4 142,47.62003 44.98,43.21 92.6,122.59 149.93,188.74 57.33,66.14 124.35,119.05 206.38,137.58 82.02,18.52 179.03,2.64 296.33,-2.65 117.3,-5.29 254.89,0 343.08,29.99 88.19,29.98 127,84.66 174.63,126.11 47.62,41.45 104.06,69.68 185.2,101.43 81.14,31.75 186.98,67.02 291.93,62.61 104.95,-4.41 209.02,-48.5 282.22,-105.83 73.2,-57.33 115.54,-127.88 203.73,-179.91 88.19,-52.04 222.25,-85.56 410.1,-110.25 187.85,-24.69 429.51,-40.57 647.35,-44.09 217.84,-3.53 411.87,5.29 532.69,8.82 120.83,3.52 168.46,1.76 219.61,-15.88 51.15,-17.64 105.83,-51.16 129.64,-101.43 23.82,-50.27 16.76,-117.29003 -18.52,-171.97003 -35.27,-54.68 -98.77,-97.02 -171.09,-136.7 -72.32,-39.69 -153.46,-76.74 -250.48,-120.83 -97.01,-44.1 -209.9,-95.26 -321.92,-144.61 -112.01,-49.36 -223.14,-96.93 -513.53,-145.43 -290.39,-48.51 -760.02,-97.96 -1200.43,-103.8 -440.41,-5.85 -851.58,31.92 -1159.71,74.96 -308.13,43.03 -513.21,91.33 -671.64,146.54 z"
   id="path9" />
  <path
   class="fil2 str0"
   d="m 1816.7961,3067.5197 c -86.55,188.26 -105.83,373.06 -141.93,544.84 -36.1,171.77 -89.01,330.52 -175.44,478.69 -86.44,148.16 -206.38,285.75 -319.27,430.39 -112.89,144.63 -218.72998,296.33 -287.51998,455.08 -68.79,158.75 -100.54,324.55 -70.55,433.92 29.98,109.36 121.71,162.27 201.08998,142.87 79.37,-19.4 146.39,-111.13 215.19,-231.07 68.79,-119.95 139.34,-268.11 252.23,-326.32 112.89,-58.21 268.12,-26.46 382.77,38.81 114.65,65.26 188.74,164.04 229.31,257.53 40.56,93.48 47.62,181.68 40.56,294.57 -7.06,112.88 -28.22,250.47 -22.93,370.42 5.29,119.94 37.04,222.24 65.27,305.15 28.22,82.9 52.91,146.4 65.26,218.72 12.35,72.32 12.35,153.45 -33.51,241.65 -45.86,88.19 -137.59,183.44 -185.21,294.57 -47.63,111.12 -51.15,238.13 -29.98,363.37 21.16,125.23 67.02,248.7 70.55,414.51 3.52,165.8 -35.28,373.94 -93.49,626.18 -58.21,252.23 -135.82,548.57 -158.75,747.89 -22.93,199.32 8.82,301.62 67.03,433.92 58.21,132.29 142.87,294.56 195.79,423.3303 52.92,128.76 74.08,224.01 81.14,336.9 7.05,112.89 0,243.42 47.63,381.01 47.62,137.58 149.92,282.21 206.37,405.69 56.44,123.47 67.03,225.77 77.61,331.61 10.58,105.83 21.17,215.19 54.68,289.28 33.51,74.08 89.96,112.88 146.41,149.93 56.44,37.04 112.88,72.31 234.59,178.15 121.71,105.83 308.69,282.22 449.8,358.07 141.11,75.85 236.36,51.15 282.22,-1.77 45.86,-52.91 42.33,-134.05 -1.77,-239.89 -44.1,-105.83 -128.76,-236.35 -204.61,-354.53 -75.85,-118.18 -142.87,-224.02 -199.31,-340.43 -56.45,-116.42 -102.32,-243.42 -135.83,-352.78 -33.52,-109.36 -54.68,-201.09 -59.97,-292.81 -5.3,-91.72 5.29,-183.45 47.63,-301.63 42.33,-118.18 116.41,-262.81 215.19,-393.34 98.78,-130.53 222.25,-246.9503 419.81,-405.7003 197.55,-158.75 469.19,-359.84 668.51,-550.34 199.32,-190.5 326.32,-370.41 407.46,-523.87 81.14,-153.46 116.41,-280.46 137.58,-418.04 21.17,-137.59 28.22,-285.75 0,-440.97 -28.22,-155.23 -91.72,-317.5 -169.33,-456.85 -77.61,-139.35 -169.34,-255.76 -252.24,-393.34 -82.9,-137.59 -156.99,-296.34 -246.94,-400.41 -89.96,-104.07 -195.8,-153.46 -379.24,-183.44 -183.45,-29.99 -444.5,-40.58 -619.12,-52.92 -174.63,-12.35 -262.83,-26.46 -296.34,-82.9 -33.51,-56.45 -12.35,-155.23 51.15,-252.24 63.5,-97.02 169.34,-192.27 322.8,-264.59 153.45,-72.32 354.54,-121.7 479.78,-97 125.23,24.69 174.62,123.46 252.23,174.62 77.61,51.15 183.45,54.67 254.01,109.35 70.55,54.68 105.82,160.52 160.5,216.97 54.68,56.44 128.77,63.49 201.09,42.33 72.32,-21.17 142.87,-70.56 195.79,-139.35 52.92,-68.79 88.19,-156.99 102.31,-241.65 14.11,-84.67 7.05,-165.81 7.05,-294.57 0,-128.77 7.06,-305.15 114.66,-537.98 107.59,-232.84 315.73,-522.12 504.47,-675.58 188.73,-153.46 358.07,-171.1 506.24,-188.74 148.16,-17.64 275.16,-35.27 361.59,-79.37 86.43,-44.1 132.3,-114.65 116.43,-213.43 -15.88,-98.78 -93.5,-225.78 -202.86,-437.44 -109.36,-211.67 -250.47,-508.01 -347.48,-712.62 -97.02,-204.61 -149.93,-317.5 -112.89,-389.82 37.04,-72.32 164.04,-104.07 280.46,-121.71 116.41,-17.64 222.25,-21.16 229.31,-84.66 7.05,-63.5 -84.68,-186.98 -229.31,-264.59 -144.64,-77.61 -342.2,-109.36 -492.13,-160.51 -149.93,-51.16 -252.23,-121.71 -354.54,-186.97 -102.31,-65.27 -204.61,-125.24 -356.3,-135.82 -151.7,-10.59 -352.79,28.22 -492.13,59.97 -139.35,31.75 -216.96,56.44 -317.5,42.33 -100.54,-14.11 -224.02,-67.02 -314.85,-106.15 -90.83,-39.13 -149.03,-64.47 -293.74,4.66 -144.71,69.13 -375.94,232.72 -625.42,441.66 -249.48,208.94 -517.2,463.23 -727.97,686.23 -210.78,223 -364.6,414.71 -451.15,602.97 z"
   id="path11" />
  <path
   class="fil2 str0"
   d="m 11647.606,1950.5297 c -85.77,-30.62 -149.86,7.19 -196.01,77.26 -46.15,70.06 -74.38,172.36 -93.78,262.32 -19.4,89.96 -29.99,167.57 -77.62,215.2 -47.62,47.62 -132.28,65.26 -227.53,86.43 -95.25,21.16 -201.09,45.86 -333.38,65.26 -132.29,19.4 -291.04,33.52 -426.86,86.44 -135.82,52.91 -248.71,144.63 -336.9099,227.54 -88.19,82.9 -151.69,156.98 -218.72,232.83 -67.03,75.85 -137.58,153.46 -239.89,229.31 -102.31,75.84 -236.36,149.93 -379.24,204.61 -142.87,54.68 -294.57,89.95 -418.04,139.34 -123.47,49.39 -218.72,112.89 -296.33,192.27 -77.61,79.37 -137.59,174.63 -174.63,299.87 -37.04,125.23 -51.15,280.45 -67.03,451.55 -15.87,171.09 -33.51,358.07 -42.33,511.53 -8.82,153.46 -8.82,273.4 35.28,377.47 44.1,104.07 132.29,192.27 213.43,236.37 81.14,44.09 155.23,44.09 266.35,-3.53 111.13,-47.63 259.29,-142.88 358.07,-202.85 98.78,-59.97 148.16,-84.67 197.55,-56.44 49.39,28.22 98.78,109.35 153.46,174.62 54.68,65.26 114.66,114.65 248.71,121.71 134.06,7.05 342.2,-28.22 504.4799,-72.32 162.28,-44.1 278.69,-97.01 402.16,-151.69 123.48,-54.69 254,-111.13 368.65,-121.71 114.66,-10.59 213.44,24.69 282.23,68.79 68.79,44.1 107.6,97.01 202.85,123.47 95.25,26.46 246.94,26.46 363.36,33.52 116.42,7.05 197.56,21.16 273.4,49.38 75.85,28.22 146.41,70.56 225.78,112.89 79.38,42.33 167.57,84.67 222.25,153.46 54.69,68.79 75.85,164.04 93.49,239.89 17.64,75.85 31.75,132.29 -72.32,156.99 -104.07,24.69 -326.32,17.64 -511.53,14.11 -185.21,-3.53 -333.37,-3.53 -511.53,5.29 -178.15,8.82 -386.29,26.46 -536.22,81.14 -149.93,54.68 -241.66,146.4 -377.48,206.37 -135.82,59.97 -315.73,88.2 -409.22,56.45 -93.49,-31.75 -100.54,-123.48 -215.1999,-84.67 -114.65,38.81 -336.9,208.14 -467.43,349.26 -130.53,141.11 -169.33,253.99 -176.39,395.11 -7.05,141.11 17.64,310.44 81.14,511.53 63.51,201.08 165.81,433.92 317.5,622.66 151.7,188.73 352.7899,333.37 532.6999,442.73 179.92,109.36 338.67,183.45 476.25,241.66 137.59,58.2 254,100.54 395.11,171.1 141.12,70.55 306.92,169.32 403.93,262.81 97.02,93.49 125.24,181.68 139.35,310.4503 14.11,128.76 14.11,298.1 0,444.5 -14.11,146.4 -42.33,269.88 -86.43,366.89 -44.09,97.01 -104.07,167.57 -121.71,273.4 -17.64,105.83 7.06,246.95 51.15,352.79 44.1,105.83 107.6,176.38 204.61,192.26 97.02,15.87 227.55,-22.93 356.31,-93.49 128.77,-70.56 255.77,-172.86 372.18,-303.39 116.42,-130.53 222.26,-289.28 359.84,-488.6 137.58,-199.32 306.92,-439.21 472.18,-732.87 165.26,-293.6603 326.44,-641.0903 425.22,-1052.0803 98.78,-410.99 135.15,-885.53 132.17,-1203.94 -2.98,-318.42 -45.32,-480.69 -115.88,-616.51 -70.55,-135.82 -169.32,-245.19 -278.69,-331.62 -109.36,-86.43 -229.3,-149.93 -298.1,-201.08 -68.79,-51.15 -86.42,-89.96 -61.73,-137.58 24.7,-47.63 91.72,-104.07 178.15,-153.46 86.43,-49.39 192.27,-91.73 303.39,-128.77 111.13,-37.04 227.54,-68.79 297,-116.23 69.47,-47.45 91.98,-110.6 78.29,-257.44 -13.69,-146.85 -63.57,-377.39 -120.28,-591.6 -56.7,-214.22 -120.23,-412.1 -205.3,-632.15 -85.06,-220.06 -191.68,-462.3 -294.4,-687.47 -102.71,-225.18 -201.53,-433.29 -348.81,-653.56 -147.27,-220.28 -343,-452.71 -509.46,-642.57 -166.46,-189.87 -303.64,-337.18 -425.97,-460.36 -122.33,-123.18 -229.81,-222.23 -315.59,-252.85 z"
   id="path13" />
  <path
   class="fil3 str0"
   d="m 7343.2361,5329.3097 c -31.75,1.76 -84.66,40.56 -95.25,146.4 -10.58,105.83 21.17,278.69 63.5,405.69 42.34,127 95.25,208.14 160.51,264.59 65.27,56.44 142.89,88.19 238.14,112.89 95.25,24.69 208.13,42.33 310.43,37.04 102.31,-5.29 194.04,-33.52 229.31,-77.61 35.28,-44.1 14.12,-104.08 -35.27,-160.52 -49.39,-56.45 -127,-109.36 -218.72,-153.46 -91.72,-44.1 -197.56,-79.37 -282.23,-112.88 -84.66,-33.52 -148.16,-65.27 -194.02,-100.55 -45.86,-35.28 -74.09,-74.08 -91.73,-123.47 -17.64,-49.39 -24.69,-109.36 -33.51,-156.98 -8.82,-47.63 -19.41,-82.91 -51.16,-81.14 z"
   id="path15" />
  <path
   class="fil4 str0"
   d="m 7247.9961,6923.8697 c 63.5,-26.46 148.16,-40.58 224.01,-35.28 75.85,5.29 142.87,29.98 209.9,63.5 67.03,33.51 134.06,75.85 178.16,130.53 44.1,54.68 65.26,121.7 77.61,183.44 12.35,61.73 15.87,118.18 -15.88,151.69 -31.75,33.51 -98.77,44.1 -172.86,47.63 -74.08,3.52 -155.22,0 -252.24,-24.69 -97.01,-24.7 -209.9,-70.56 -276.93,-111.13 -67.03,-40.57 -88.19,-75.85 -100.54,-125.24 -12.35,-49.39 -15.87,-112.89 3.53,-164.04 19.4,-51.15 61.74,-89.96 125.24,-116.41 z"
   id="path17" />
  <path
   class="fil1 str0"
   d="m 6082.0961,13761.21 c -252.28,-60.85 -442.65,-147.97 -616.33,-231.22 -173.69,-83.24 -330.67,-162.61 -434.74,-239.34 -104.07,-76.73 -155.23,-150.82 -179.92,-210.79 -24.7,-59.97 -22.93,-105.83 59.97,-124.35 82.9,-18.52 246.95,-9.71 373.95,32.62 127,42.34 216.96,118.19 332.5,156.99 115.53,38.81 256.64,40.58 402.16,13.23 145.52,-27.34 295.45,-83.78 468.31,-122.59 172.86,-38.81 368.66,-59.97 595.32,-69.67 226.66,-9.7 484.18,-7.94 711.72,-20.29 227.55,-12.34 425.1,-38.8 575.03,-67.03 149.94,-28.22 252.24,-58.2 370.42,-101.42 118.18,-43.21 252.24,-99.66 369.53,-119.95 117.3,-20.28 217.85,-4.4 363.37,3.53 145.52,7.94 336.02,7.94 432.15,49.39 96.1299,41.45 97.8999,124.36 99.6599,194.03 1.76,69.68 3.53,126.12 -10.1899,195.56 -13.72,69.44 -42.93,151.86 -144.62,226.98 -101.69,75.13 -275.88,142.94 -481.67,210.17 -205.79,67.24 -443.18,133.89 -645.85,182.48 -202.67,48.59 -370.61,79.11 -569.25,104.73 -198.63,25.63 -427.96,46.36 -631.57,56.7 -203.6,10.35 -381.47,10.32 -627.49,-7 -246.03,-17.31 -560.19,-51.9 -812.46,-112.76 z"
   id="path19" />
  <path
   class="fil2 str0"
   d="m 7991.7061,2187.8297 c -24.69,-67.03 -28.22,-158.76 12.35,-204.62 40.57,-45.86 125.24,-45.86 197.56,-31.75 72.32,14.11 132.29,42.34 181.68,79.38 49.39,37.04 88.19,82.9 95.25,127 7.06,44.1 -17.64,86.43 -56.45,114.66 -38.8,28.22 -91.71,42.33 -146.4,51.15 -54.68,8.82 -111.12,12.34 -162.28,-7.06 -51.15,-19.4 -97.01,-61.74 -121.71,-128.76 z"
   id="path21" />
  <path
   class="fil2 str0"
   d="m 10685.176,1944.4097 c -1.76,-63.5 -8.82,-130.53 17.64,-174.63 26.46,-44.1 86.43,-65.26 146.4,-75.84 59.97,-10.59 119.95,-10.59 174.63,7.05 54.68,17.64 104.07,52.92 114.65,112.9 10.59,59.97 -17.64,144.63 -75.85,211.66 -58.2,67.03 -146.4,116.41 -215.19,130.52 -68.79,14.11 -118.18,-7.05 -141.11,-47.62 -22.93,-40.57 -19.41,-100.54 -21.17,-164.04 z"
   id="path23" />
  <path
   class="fil2 str0"
   d="m 8250.9961,3059.1897 c -61.73,-52.92 -107.59,-137.58 -104.06,-201.08 3.53,-63.5 56.44,-105.84 151.69,-123.47 95.25,-17.64 232.84,-10.59 329.85,8.82 97.01,19.4 153.46,51.15 215.19,114.65 61.74,63.5 128.77,158.75 164.05,231.07 35.28,72.32 38.8,121.71 10.58,151.7 -28.22,29.98 -88.2,40.57 -158.76,45.86 -70.55,5.29 -151.68,5.29 -218.71,-17.64 -67.03,-22.93 -119.94,-68.8 -185.21,-102.31 -65.26,-33.52 -142.88,-54.68 -204.62,-107.6 z"
   id="path25" />
  <path
   class="fil5 str0"
   d="m 7951.1061,8560.8097 c 28.23,-12.35 84.67,-10.58 150.82,-9.7 66.15,0.88 141.99,0.88 198.43,1.76 56.45,0.88 93.49,2.65 131.41,2.65 37.93,0 76.73,-1.77 103.19,-2.65 26.46,-0.88 40.58,-0.88 47.63,27.34 7.06,28.22 7.06,84.67 7.06,143.76 0,59.09 0,120.82 1.76,176.39 1.77,55.56 5.29,104.95 7.05,144.64 1.77,39.69 1.77,69.67 -12.34,97.9 -14.11,28.22 -42.34,54.67 -87.32,84.66 -44.98,29.98 -106.71,63.5 -163.16,95.25 -56.44,31.75 -107.6,61.73 -156.99,94.37 -49.38,32.63 -97.01,67.9 -138.46,92.6 -41.45,24.69 -76.72,38.81 -98.77,39.69 -22.05,0.88 -30.87,-11.46 -32.64,-32.63 -1.76,-21.17 3.53,-51.15 4.41,-99.66 0.88,-48.51 -2.64,-115.54 -2.64,-180.8 0,-65.27 3.52,-128.77 4.4,-191.38 0.89,-62.62 -0.88,-124.36 0,-181.68 0.89,-57.33 4.41,-110.25 6.17,-149.05 1.77,-38.81 1.77,-63.51 1.77,-89.08 0,-25.58 0,-52.03 28.22,-64.38 z"
   id="path27" />
  <path
   class="fil6 str0"
   d="m 7825.2961,8666.5697 c -112.89,-87.54 -351.58,-69.31 -654.38,-66.37 -302.79,2.93 -669.68,-9.41 -1035.69,-24.4 -366.01,-15 -731.13,-32.63 -1057.45,-52.91 -326.33,-20.29 -613.84,-43.23 -877.54,-66.16 -263.71,-22.93 -503.59,-45.86 -728.48,-77.61 -224.9,-31.75 -434.81,-72.32 -687.04,-141.11 -252.24,-68.79 -546.82,-165.81 -821.98,-269.88 -275.17,-104.07 -530.94,-215.19 -749.66,-307.79 -218.71998,-92.61 -400.39998,-166.7 -530.92998,-225.79 -130.53,-59.09 -209.9,-103.18 -266.34,-131.4 -56.45,-28.23 -89.97,-40.57 -119.95,-44.1 -29.99,-3.53 -56.45,1.76 -82.91,40.57 -26.46,38.8 -52.91,111.12 -58.2,181.68 -5.3,70.55 10.58,139.35 18.52,217.84 7.93,78.49 7.93,166.69 14.99,238.13 7.05,71.43 21.17,126.12 33.52,181.68 12.34,55.56 22.93,112.01 65.26,153.46 42.33,41.45 116.42,67.91 233.72,127.88 117.29,59.97 277.81,153.46 459.49,239.89 181.67998,86.43 384.51998,165.8 567.08998,240.77 182.56,74.97 344.84,145.52 498.3,199.32 153.46,53.8 298.1,90.84 476.26,127 178.15,36.16 389.81,71.44 609.42,104.08 219.6,32.63 447.15,62.61 711.74,96.13 264.58,33.51 566.2,70.55 863.42,98.77 297.21,28.22 590.02,47.63 870.48,60.86 280.45,13.23 548.57,20.28 740.84,22.93 192.26,2.64 308.67,0.88 451.55,0 142.87,-0.89 312.21,-0.89 492.12,0.88 179.92,1.76 370.43,5.29 481.5,-2.69 111.08,-7.99 142.72,-27.48 157.72,-103.99 15,-76.51 13.35,-210.04 18.98,-373.44 5.63,-163.41 18.53,-356.7 -94.37,-444.23 z"
   id="path29" />
  <path
   class="fil6 str0"
   d="m 13748.036,6391.0097 c 85.11,-74.53 106.27,-113.33 126.61,-145.68 20.35,-32.35 39.86,-58.24 64.11,-76.76 24.26,-18.52 53.26,-29.67 84.95,-25.54 31.69,4.12 66.09,23.53 96.07,49.55 29.99,26.01 55.56,58.64 74.96,95.68 19.41,37.04 32.64,78.5 42.34,119.95 9.7,41.45 15.88,82.9 26.9,124.35 11.03,41.45 26.9,82.91 38.81,118.63 11.91,35.72 19.84,65.7 7.93,110.24 -11.9,44.54 -43.65,103.63 -75.4,150.38 -31.75,46.74 -63.5,81.13 -187.42,187.41 -123.91,106.27 -339.98,284.43 -656.6,500.51 -316.62,216.07 -733.79,470.07 -1024.83,643.82 -291.04,173.74 -455.97,267.22 -721,389.82 -265.02,122.59 -630.14,274.28 -941.47,418.48 -311.33,144.2 -568.86,280.91 -899.5899,456.86 -330.73,175.94 -734.66,391.14 -1146.53,631.0303 -411.87,239.89 -831.67,504.47 -1128.89,711.73 -297.22,207.26 -471.84,357.19 -540.19,474.49 -68.36,117.3 -30.43,201.96 52.47,320.15 82.9,118.18 210.79,269.87 366.45,432.15 155.66,162.28 339.11,335.15 453.76,459.06 114.65,123.91 160.52,198.88 190.06,275.16 29.55,76.29 42.77,153.91 39.68,283.99 -3.08,130.09 -22.48,312.66 -67.02,470.52 -44.54,157.87 -114.21,291.05 -178.16,369.98 -63.94,78.94 -122.14,103.63 -244.29,186.09 -122.15,82.47 -308.25,222.7 -462.15,306.04 -153.9,83.35 -275.6,109.8 -367.32,127 -91.73,17.2 -153.46,25.13 -209.02,52.47 -55.57,27.34 -104.96,74.09 -132.74,112.01 -27.78,37.93 -33.96,67.03 -19.84,103.63 14.11,36.61 48.5,80.7 102.74,123.47 54.24,42.78 128.33,84.23 242.54,131.85 114.21,47.63 268.55,101.43 398.2,159.64 129.64,58.21 234.6,120.83 314.41,206.38 79.82,85.55 134.5,194.03 156.1,308.24 21.61,114.21 10.15,234.16 -35.72,359.83 -45.86,125.68 -126.11,257.09 -271.63,435.24 -145.52,178.16 -356.31,403.05 -560.48,588.26 -204.17,185.21 -401.72,330.74 -509.32,410.11 -107.6,79.38 -125.24,92.61 -141.55,102.31 -16.32,9.7 -31.32,15.88 -47.19,14.55 -15.88,-1.32 -32.63,-10.14 -56.44,-24.25 -23.82,-14.11 -54.69,-33.52 -105.84,-64.39 -51.16,-30.86 -122.59,-73.2 -184.32,-116.86 -61.74,-43.65 -113.78,-88.63 -159.64,-123.91 -45.86,-35.28 -85.55,-60.85 -105.39,-84.67 -19.85,-23.81 -19.85,-45.85 12.34,-78.49 32.19,-32.63 96.58,-75.84 154.79,-114.65 58.21,-38.81 110.24,-73.2 258.85,-201.53 148.61,-128.32 393.79,-350.57 549.9,-496.09 156.1,-145.52 223.12,-214.32 259.72,-270.33 36.6,-56 42.78,-99.21 44.55,-144.19 1.76,-44.98 -0.89,-91.73 -6.18,-120.39 -5.29,-28.66 -13.23,-39.25 -77.17,-64.39 -63.94,-25.13 -183.89,-64.81 -280.46,-101.41 -96.57,-36.6 -169.78,-70.12 -235.92,-103.19 -66.15,-33.07 -125.24,-65.71 -179.48,-100.11 -54.24,-34.39 -103.62,-70.55 -167.12,-119.94 -63.5,-49.39 -141.12,-112 -191.83,-162.72 -50.71,-50.71 -74.53,-89.51 -92.16,-121.26 -17.64,-31.75 -29.11,-56.45 -33.96,-106.28 -4.85,-49.83 -3.08,-124.79 3.98,-197.56 7.05,-72.76 19.39,-143.31 47.62,-201.96 28.22,-58.65 72.31,-105.4 112.88,-139.36 40.57,-33.95 77.62,-55.11 138.03,-97.89 60.41,-42.77 144.2,-107.16 257.09,-169.34 112.89,-62.17 254.88,-122.14 376.59,-181.67 121.71,-59.53 223.14,-118.63 325.89,-184.78 102.74,-66.14 206.81,-139.34 270.75,-198.43 63.94,-59.09 87.75,-104.07 109.8,-152.14 22.05,-48.06 42.33,-99.22 54.68,-149.93 12.35,-50.71 16.76,-100.98 18.96,-139.79 2.21,-38.8 2.21,-66.14 -19.84,-116.85 -22.05,-50.71 -66.14,-124.8 -139.78,-220.93 -73.65,-96.13 -176.84,-214.32 -271.65,-307.37 -94.81,-93.04 -181.24,-160.95 -254.44,-219.6 -73.2,-58.65 -133.18,-108.04 -185.65,-153.46 -52.48,-45.42 -97.46,-86.87 -132.29,-126.11 -34.84,-39.25 -59.54,-76.3 -75.41,-108.49 -15.88,-32.19 -22.93,-59.53 -37.04,-121.26 -14.12,-61.74 -35.28,-157.88 -45.86,-230.64 -10.59,-72.76 -10.59,-122.14 -7.5,-164.03 3.08,-41.9 9.26,-76.29 38.81,-165.81 29.54,-89.52 82.46,-234.16 179.48,-363.8 97.01,-129.65 238.12,-244.31 358.51,-335.15 120.38,-90.84 220.04,-157.87 372.18,-254.44 152.13,-96.58 356.75,-222.69 501.83,-310.4403 145.08,-87.76 230.62,-137.15 313.96,-195.8 83.35,-58.65 164.49,-126.56 322.8,-235.48 158.31,-108.92 393.79,-258.85 638.53,-391.14 244.74,-132.29 498.74,-246.95 693.65,-345.28 194.91,-98.34 330.73,-180.37 607.2199,-311.78 276.49,-131.41 693.66,-312.21 995.28,-451.56 301.63,-139.35 487.72,-237.24 699.38,-354.54 211.67,-117.3 448.92,-254 725.41,-417.6 276.49,-163.6 592.23,-354.11 824.62,-504.48 232.4,-150.37 381.44,-260.62 466.55,-335.14 z"
   id="path31" />
  <path
   class="fil5 str0"
   d="m 5438.2361,17236.25 c -35.86,-14.41 -68.35,-1.22 -95.17,20.37 -26.83,21.59 -47.99,51.57 -70.48,78.03 -22.49,26.46 -46.3,49.39 -65.26,73.2 -18.96,23.81 -33.08,48.51 -34.4,76.73 -1.32,28.22 10.14,59.97 30.43,87.31 20.28,27.34 49.39,50.28 87.31,83.35 37.92,33.07 84.67,76.29 130.53,112 45.86,35.72 90.84,63.95 129.65,87.76 38.8,23.81 71.44,43.22 102.31,53.36 30.86,10.14 59.97,11.02 83.78,7.05 23.81,-3.97 42.33,-12.78 63.5,-22.48 21.16,-9.7 44.98,-20.29 66.15,-30.87 21.16,-10.58 39.68,-21.17 58.2,-35.28 18.52,-14.11 37.04,-31.75 52.48,-45.86 15.43,-14.11 27.78,-24.7 37.04,-33.96 9.26,-9.26 15.44,-17.19 22.34,-30.79 6.89,-13.59 14.51,-32.83 -2.24,-53.29 -16.75,-20.46 -57.87,-42.12 -142.24,-97.03 -84.38,-54.9 -212,-143.03 -295.43,-208.11 -83.43,-65.07 -122.65,-107.08 -158.5,-121.49 z"
   id="path33" />
  <line
   class="fil7 str0"
   x1="492.70605"
   y1="7342.6997"
   x2="424.15601"
   y2="7799.9497"
   id="line35" />
  <line
   class="fil7 str0"
   x1="1358.2563"
   y1="7722.019"
   x2="1286.7061"
   y2="8281.4902"
   id="line37" />
  <line
   class="fil7 str0"
   x1="2490.9062"
   y1="8151.269"
   x2="2432.3662"
   y2="8604.2803"
   id="line39" />
  <line
   class="fil7 str0"
   x1="3795.0562"
   y1="8418.4697"
   x2="3789.7061"
   y2="8860.9199"
   id="line41" />
  <line
   class="fil7 str0"
   x1="5241.9858"
   y1="8532.6904"
   x2="5250.2163"
   y2="8998.5"
   id="line43" />
  <line
   class="fil7 str0"
   x1="6652.936"
   y1="8594.0801"
   x2="6660.4565"
   y2="9054.0703"
   id="line45" />
  <line
   class="fil7 str0"
   x1="13935.337"
   y1="6171.2593"
   x2="14145.567"
   y2="6424.1099"
   id="line47" />
  <line
   class="fil7 str0"
   x1="13678.347"
   y1="6448.6099"
   x2="13849.228"
   y2="6768.0698"
   id="line49" />
  <line
   class="fil7 str0"
   x1="12670.417"
   y1="7103.4897"
   x2="12880.856"
   y2="7424.2397"
   id="line51" />
  <line
   class="fil7 str0"
   x1="11499.776"
   y1="7773.5894"
   x2="11695.517"
   y2="8122.7397"
   id="line53" />
  <line
   class="fil7 str0"
   x1="10302.946"
   y1="8331.4102"
   x2="10473.137"
   y2="8747.1504"
   id="line55" />
  <line
   class="fil7 str0"
   x1="9231.877"
   y1="8863"
   x2="9393.6367"
   y2="9260.4502"
   id="line57" />
  <line
   class="fil7 str0"
   x1="8146.3159"
   y1="9469.2295"
   x2="8356.4668"
   y2="9821.3701"
   id="line59" />
  <line
   class="fil7 str0"
   x1="7208.9663"
   y1="10087.82"
   x2="7430.4263"
   y2="10408.75"
   id="line61" />
  <line
   class="fil7 str0"
   x1="6185.1558"
   y1="10896.45"
   x2="6541.4263"
   y2="11117.83"
   id="line63" />
  <line
   class="fil7 str0"
   x1="6513.4165"
   y1="14947.681"
   x2="6263.5659"
   y2="15181.8"
   id="line65" />
  <line
   class="fil7 str0"
   x1="7415.4858"
   y1="15394.96"
   x2="7152.5659"
   y2="15658.06"
   id="line67" />
  <line
   class="fil7 str0"
   x1="7153.1958"
   y1="16738.85"
   x2="6745.1265"
   y2="16594.68"
   id="line69" />
  <line
   class="fil7 str0"
   x1="6399.4058"
   y1="17433.51"
   x2="6051.9263"
   y2="17208.51"
   id="line71" />
  <path
   class="fil7 str0"
   d="m 5626.6461,15208.03 c 27.99,-75.78 55.98,-151.55 103.49,-210.61 47.51,-59.05 114.53,-101.39 179.8,-133.14 65.26,-31.75 128.76,-52.91 215.23,-75.1 86.47,-22.19 195.91,-45.39 305.35,-68.6"
   id="path73" />
  <path
   class="fil7 str0"
   d="m 6493.5761,12267.44 c -33.45,-130.98 -66.9,-261.97 -71.28,-361.85 -4.38,-99.89 20.32,-168.69 58.24,-233.95 37.92,-65.27 89.08,-127 146.41,-179.92 57.32,-52.92 120.82,-97.01 237.18,-176.81 116.35,-79.8 285.56,-195.3 454.77,-310.8"
   id="path75" />
  <line
   class="fil7 str0"
   x1="357.48608"
   y1="7276.3091"
   x2="315.67603"
   y2="7410.9897"
   id="line77" />
  <line
   class="fil7 str0"
   x1="682.146"
   y1="7434.5493"
   x2="656.98608"
   y2="7569.7397"
   id="line79" />
  <line
   class="fil7 str0"
   x1="822.12598"
   y1="7495.7495"
   x2="791.92627"
   y2="7620.0093"
   id="line81" />
  <line
   class="fil7 str0"
   x1="979.25635"
   y1="7562.0493"
   x2="950.67627"
   y2="7694.0991"
   id="line83" />
  <line
   class="fil7 str0"
   x1="1179.4761"
   y1="7646.1294"
   x2="1135.8862"
   y2="7786.6997"
   id="line85" />
  <line
   class="fil7 str0"
   x1="1609.5762"
   y1="7827.7192"
   x2="1585.6763"
   y2="7953.3892"
   id="line87" />
  <line
   class="fil7 str0"
   x1="1847.2959"
   y1="7923.6597"
   x2="1810.5762"
   y2="8061.8696"
   id="line89" />
  <line
   class="fil7 str0"
   x1="2011.2261"
   y1="7986.3198"
   x2="1985.2061"
   y2="8133.3091"
   id="line91" />
  <line
   class="fil7 str0"
   x1="2213.666"
   y1="8059.2192"
   x2="2191.5762"
   y2="8220.6201"
   id="line93" />
  <line
   class="fil7 str0"
   x1="2747.0361"
   y1="8227.6104"
   x2="2696.936"
   y2="8416.4199"
   id="line95" />
  <line
   class="fil7 str0"
   x1="2976.7261"
   y1="8286.96"
   x2="2950.936"
   y2="8490.5"
   id="line97" />
  <line
   class="fil7 str0"
   x1="3259.186"
   y1="8345.4004"
   x2="3241.9761"
   y2="8522.25"
   id="line99" />
  <line
   class="fil7 str0"
   x1="3496.9863"
   y1="8382.6396"
   x2="3474.8062"
   y2="8532.8301"
   id="line101" />
  <line
   class="fil7 str0"
   x1="4094.4761"
   y1="8447.4004"
   x2="4088.646"
   y2="8622.79"
   id="line103" />
  <line
   class="fil7 str0"
   x1="4390.8462"
   y1="8472.9102"
   x2="4390.2661"
   y2="8654.54"
   id="line105" />
  <line
   class="fil7 str0"
   x1="4638.7959"
   y1="8492.5703"
   x2="4644.2661"
   y2="8686.29"
   id="line107" />
  <line
   class="fil7 str0"
   x1="4903.3765"
   y1="8511.5703"
   x2="4924.7261"
   y2="8781.54"
   id="line109" />
  <line
   class="fil7 str0"
   x1="5576.3062"
   y1="8550.5596"
   x2="5575.606"
   y2="8739.21"
   id="line111" />
  <line
   class="fil7 str0"
   x1="5888.9663"
   y1="8565.29"
   x2="5887.8159"
   y2="8739.21"
   id="line113" />
  <line
   class="fil7 str0"
   x1="6135.2261"
   y1="8575.7998"
   x2="6147.106"
   y2="8770.96"
   id="line115" />
  <line
   class="fil7 str0"
   x1="6428.2661"
   y1="8587.0303"
   x2="6438.146"
   y2="8765.6699"
   id="line117" />
  <line
   class="fil7 str0"
   x1="6919.8462"
   y1="8599.5703"
   x2="6909.106"
   y2="8808"
   id="line119" />
  <line
   class="fil7 str0"
   x1="7170.9165"
   y1="8600.2002"
   x2="7173.686"
   y2="8808"
   id="line121" />
  <line
   class="fil7 str0"
   x1="7438.2563"
   y1="8596.6504"
   x2="7427.686"
   y2="8802.71"
   id="line123" />
  <line
   class="fil7 str0"
   x1="7687.9263"
   y1="8612.4199"
   x2="7686.9858"
   y2="8786.8301"
   id="line125" />
  <line
   class="fil7 str0"
   x1="13817.597"
   y1="6323.5298"
   x2="13915.296"
   y2="6421.4399"
   id="line127" />
  <line
   class="fil7 str0"
   x1="13520.017"
   y1="6565.7993"
   x2="13587.206"
   y2="6686.019"
   id="line129" />
  <line
   class="fil7 str0"
   x1="13330.147"
   y1="6694.4595"
   x2="13401.997"
   y2="6818.3091"
   id="line131" />
  <line
   class="fil7 str0"
   x1="13135.817"
   y1="6818.8999"
   x2="13216.786"
   y2="6929.4399"
   id="line133" />
  <line
   class="fil7 str0"
   x1="12895.687"
   y1="6967.3491"
   x2="12989.247"
   y2="7082.8999"
   id="line135" />
  <line
   class="fil7 str0"
   x1="12456.866"
   y1="7230.6294"
   x2="12534.167"
   y2="7421.5698"
   id="line137" />
  <line
   class="fil7 str0"
   x1="12212.747"
   y1="7374.019"
   x2="12274.866"
   y2="7516.8198"
   id="line139" />
  <line
   class="fil7 str0"
   x1="11938.727"
   y1="7531.8296"
   x2="11989.116"
   y2="7680.8599"
   id="line141" />
  <line
   class="fil7 str0"
   x1="11731.457"
   y1="7648.229"
   x2="11777.457"
   y2="7802.5698"
   id="line143" />
  <line
   class="fil7 str0"
   x1="11255.816"
   y1="7896.8394"
   x2="11332.946"
   y2="8040.6899"
   id="line145" />
  <line
   class="fil7 str0"
   x1="11032.076"
   y1="8002.769"
   x2="11115.986"
   y2="8151.8198"
   id="line147" />
  <line
   class="fil7 str0"
   x1="10802.717"
   y1="8107.0991"
   x2="10872.576"
   y2="8252.3604"
   id="line149" />
  <line
   class="fil7 str0"
   x1="10578.616"
   y1="8207.54"
   x2="10655.616"
   y2="8358.1904"
   id="line151" />
  <line
   class="fil7 str0"
   x1="10090.356"
   y1="8429.0703"
   x2="10131.717"
   y2="8546.0498"
   id="line153" />
  <line
   class="fil7 str0"
   x1="9865.7764"
   y1="8538.0303"
   x2="9922.6865"
   y2="8662.4697"
   id="line155" />
  <line
   class="fil7 str0"
   x1="9643.417"
   y1="8654.1104"
   x2="9700.4365"
   y2="8794.7598"
   id="line157" />
  <line
   class="fil7 str0"
   x1="9444.3066"
   y1="8758.6504"
   x2="9507.2969"
   y2="8879.4297"
   id="line159" />
  <line
   class="fil7 str0"
   x1="9000.8564"
   y1="8975.21"
   x2="9102.4668"
   y2="9167.8496"
   id="line161" />
  <line
   class="fil7 str0"
   x1="8735.9268"
   y1="9111.3896"
   x2="8853.7568"
   y2="9247.2295"
   id="line163" />
  <line
   class="fil7 str0"
   x1="8498.7969"
   y1="9227.5596"
   x2="8605.0469"
   y2="9390.0996"
   id="line165" />
  <line
   class="fil7 str0"
   x1="8335.6367"
   y1="9322.8096"
   x2="8430.417"
   y2="9495.9404"
   id="line167" />
  <line
   class="fil7 str0"
   x1="7934.9663"
   y1="9618.8701"
   x2="8070.5864"
   y2="9781.6904"
   id="line169" />
  <line
   class="fil7 str0"
   x1="7774.5962"
   y1="9738.0098"
   x2="7874.7964"
   y2="9871.6504"
   id="line171" />
  <line
   class="fil7 str0"
   x1="7619.0864"
   y1="9838.2402"
   x2="7716.0464"
   y2="9998.6504"
   id="line173" />
  <line
   class="fil7 str0"
   x1="7399.7466"
   y1="9970.7598"
   x2="7504.3765"
   y2="10130.94"
   id="line175" />
  <line
   class="fil7 str0"
   x1="6958.8062"
   y1="10244.25"
   x2="7041.3657"
   y2="10374.37"
   id="line177" />
  <line
   class="fil7 str0"
   x1="6769.9263"
   y1="10367.42"
   x2="6813.8159"
   y2="10469.62"
   id="line179" />
  <line
   class="fil7 str0"
   x1="6559.8159"
   y1="10575.45"
   x2="6681.5259"
   y2="10691.87"
   id="line181" />
  <line
   class="fil7 str0"
   x1="6335.7358"
   y1="10711.2"
   x2="6448.6958"
   y2="10802.99"
   id="line183" />
  <line
   class="fil7 str0"
   x1="6040.2661"
   y1="11223.49"
   x2="6181.4858"
   y2="11266.01"
   id="line185" />
  <line
   class="fil7 str0"
   x1="6010.9058"
   y1="11473.2"
   x2="6128.5757"
   y2="11467.1"
   id="line187" />
  <line
   class="fil7 str0"
   x1="6045.9458"
   y1="11680.41"
   x2="6123.2856"
   y2="11665.53"
   id="line189" />
  <line
   class="fil7 str0"
   x1="6426.5659"
   y1="14855.38"
   x2="6316.4565"
   y2="14890.79"
   id="line191" />
  <line
   class="fil7 str0"
   x1="6644.4058"
   y1="15028.71"
   x2="6578.396"
   y2="15118.341"
   id="line193" />
  <line
   class="fil7 str0"
   x1="6816.8862"
   y1="15104.159"
   x2="6755.6665"
   y2="15205.649"
   id="line195" />
  <line
   class="fil7 str0"
   x1="7020.2466"
   y1="15183.12"
   x2="6948.8062"
   y2="15277.091"
   id="line197" />
  <line
   class="fil7 str0"
   x1="7221.686"
   y1="15271.101"
   x2="7123.436"
   y2="15374.979"
   id="line199" />
  <line
   class="fil7 str0"
   x1="7624.6665"
   y1="15753.79"
   x2="7451.5161"
   y2="15763.921"
   id="line201" />
  <line
   class="fil7 str0"
   x1="7625.5161"
   y1="15978.13"
   x2="7493.856"
   y2="15967.649"
   id="line203" />
  <line
   class="fil7 str0"
   x1="7471.0161"
   y1="16342.13"
   x2="7298.0864"
   y2="16256.06"
   id="line205" />
  <line
   class="fil7 str0"
   x1="7317.3159"
   y1="16548.859"
   x2="7139.3364"
   y2="16494.18"
   id="line207" />
  <line
   class="fil7 str0"
   x1="6995.8062"
   y1="16906.078"
   x2="6861.5464"
   y2="16851.359"
   id="line209" />
  <line
   class="fil7 str0"
   x1="6875.0161"
   y1="17026.318"
   x2="6753.0659"
   y2="16973.068"
   id="line211" />
  <line
   class="fil7 str0"
   x1="6740.7358"
   y1="17151.648"
   x2="6631.356"
   y2="17078.898"
   id="line213" />
  <line
   class="fil7 str0"
   x1="6573.146"
   y1="17272.049"
   x2="6488.4761"
   y2="17213.84"
   id="line215" />
  <ellipse
   class="fil1 str0"
   cx="5086.9458"
   cy="4650.7095"
   rx="730.25"
   ry="682.62"
   id="ellipse217" />
  <ellipse
   class="fil8 str0"
   cx="5118.1157"
   cy="4908.0996"
   rx="468.31"
   ry="420.69"
   id="ellipse219" />
  <circle
   class="fil1 str0"
   cx="9065.6768"
   cy="4617.9297"
   r="642.94"
   id="circle221" />
  <ellipse
   class="fil8 str0"
   cx="9134.5068"
   cy="4849.8794"
   rx="410.10001"
   ry="373.06"
   id="ellipse223" />
 </g>
</svg>
